<svg width="75" height="75" viewBox="0 0 75 75" fill="none" xmlns="http://www.w3.org/2000/svg">
<path d="M37.5 50C35.0136 50 32.629 49.0123 30.8709 47.2541C29.1127 45.496 28.125 43.1114 28.125 40.625C28.125 37.125 30.0313 34.0625 32.8125 32.4688L63.1563 14.9062L45.875 44.8438C44.3125 47.9062 41.1563 50 37.5 50ZM37.5 9.375C43.1563 9.375 48.4375 10.9375 53.0313 13.5L46.4688 17.2813C43.75 16.2188 40.625 15.625 37.5 15.625C30.8696 15.625 24.5108 18.2589 19.8223 22.9473C15.1339 27.6357 12.5 33.9946 12.5 40.625C12.5 47.5312 15.2813 53.7812 19.8125 58.2812H19.8438C21.0625 59.5 21.0625 61.4688 19.8438 62.6875C18.625 63.9062 16.625 63.9062 15.4063 62.7188C12.4999 59.8208 10.1949 56.3771 8.62356 52.5855C7.05224 48.7939 6.24561 44.7293 6.25002 40.625C6.25002 32.337 9.54242 24.3884 15.4029 18.5279C21.2634 12.6674 29.212 9.375 37.5 9.375ZM68.75 40.625C68.75 49.25 65.25 57.0625 59.5938 62.7188C58.375 63.9062 56.4063 63.9062 55.1875 62.6875C54.8978 62.3984 54.668 62.055 54.5112 61.6769C54.3543 61.2989 54.2736 60.8937 54.2736 60.4844C54.2736 60.0751 54.3543 59.6698 54.5112 59.2918C54.668 58.9138 54.8978 58.5704 55.1875 58.2812C57.5116 55.9667 59.3543 53.2148 60.6094 50.1844C61.8645 47.154 62.507 43.905 62.5 40.625C62.5 37.5 61.9063 34.375 60.8125 31.5625L64.5938 25C67.1875 29.6875 68.75 34.9375 68.75 40.625Z" fill="#27774C"/>
</svg>
