<svg width="76" height="75" viewBox="0 0 76 75" fill="none" xmlns="http://www.w3.org/2000/svg">
<path d="M38 50C35.5136 50 33.129 49.0123 31.3709 47.2541C29.6127 45.496 28.625 43.1114 28.625 40.625C28.625 37.125 30.5313 34.0625 33.3125 32.4688L63.6563 14.9062L46.375 44.8438C44.8125 47.9062 41.6563 50 38 50ZM38 9.375C43.6563 9.375 48.9375 10.9375 53.5313 13.5L46.9688 17.2813C44.25 16.2188 41.125 15.625 38 15.625C31.3696 15.625 25.0108 18.2589 20.3223 22.9473C15.6339 27.6357 13 33.9946 13 40.625C13 47.5312 15.7813 53.7812 20.3125 58.2812H20.3438C21.5625 59.5 21.5625 61.4688 20.3438 62.6875C19.125 63.9062 17.125 63.9062 15.9063 62.7188C12.9999 59.8208 10.6949 56.3771 9.12356 52.5855C7.55224 48.7939 6.74561 44.7293 6.75002 40.625C6.75002 32.337 10.0424 24.3884 15.9029 18.5279C21.7634 12.6674 29.712 9.375 38 9.375ZM69.25 40.625C69.25 49.25 65.75 57.0625 60.0938 62.7188C58.875 63.9062 56.9063 63.9062 55.6875 62.6875C55.3978 62.3984 55.168 62.055 55.0112 61.6769C54.8543 61.2989 54.7736 60.8937 54.7736 60.4844C54.7736 60.0751 54.8543 59.6698 55.0112 59.2918C55.168 58.9138 55.3978 58.5704 55.6875 58.2812C58.0116 55.9667 59.8543 53.2148 61.1094 50.1844C62.3645 47.154 63.007 43.905 63 40.625C63 37.5 62.4063 34.375 61.3125 31.5625L65.0938 25C67.6875 29.6875 69.25 34.9375 69.25 40.625Z" fill="#ED4646"/>
</svg>
