<svg width="75" height="75" viewBox="0 0 75 75" fill="none" xmlns="http://www.w3.org/2000/svg">
<path d="M35.6969 65.625V48.7969H46.6344C47.4052 48.7969 48.0583 49.0854 48.5938 49.6625C49.1313 50.2396 49.4 50.9125 49.4 51.6813V56.85C49.4 57.6209 49.1313 58.274 48.5938 58.8094C48.0563 59.3469 47.4031 59.6156 46.6344 59.6156H38.4625V65.625H35.6969ZM54.6875 65.625V48.7969H57.4531V55.0469H65.625V48.7969H68.3906V65.625H65.625V57.8125H57.4531V65.625H54.6875ZM38.4625 56.85H46.6344V51.5625H38.4625V56.85ZM29.4469 65.5313C23.6552 65.0834 18.8615 62.7604 15.0656 58.5625C11.2719 54.3584 9.375 49.2125 9.375 43.125C9.375 38.6375 11.1854 33.675 14.8062 28.2375C18.4271 22.8 23.9083 16.8334 31.25 10.3375C38.3937 16.6709 43.775 22.4865 47.3938 27.7844C51.0146 33.0844 52.925 37.9584 53.125 42.4063V42.55H34.4937C33.1063 42.55 31.9187 43.0448 30.9312 44.0344C29.9437 45.024 29.449 46.2115 29.4469 47.5969V65.5344V65.5313Z" fill="#EEAC2B"/>
</svg>
