<svg width="75" height="75" viewBox="0 0 75 75" fill="none" xmlns="http://www.w3.org/2000/svg">
<path d="M41.0156 45.7219V20.2172H31.6406V45.7172C28.3523 47.4234 26.0766 50.8265 26.0766 54.7875C26.117 57.4805 27.215 60.0495 29.1336 61.9397C31.0521 63.8299 33.6372 64.8896 36.3305 64.8899C39.0238 64.8902 41.6091 63.8311 43.5281 61.9413C45.4471 60.0516 46.5457 57.4828 46.5867 54.7898C46.5867 50.8289 44.3133 47.4258 41.018 45.7242L41.0156 45.7219ZM48.0469 12.3C48.0469 5.84061 42.7875 0.581238 36.3281 0.581238C29.8688 0.581238 24.6094 5.84296 24.6094 12.3V42.1289C22.8535 43.7363 21.4518 45.6918 20.4934 47.8708C19.535 50.0499 19.041 52.4047 19.043 54.7851C19.043 64.3148 26.8008 72.075 36.3305 72.075C45.8602 72.075 53.6156 64.3172 53.6156 54.7851C53.6156 49.8961 51.5578 45.3398 48.0492 42.1242V12.3047L48.0469 12.3ZM48.9258 54.7922C48.9214 58.1313 47.5926 61.3323 45.2308 63.6928C42.869 66.0532 39.6673 67.3803 36.3281 67.3828C32.9896 67.3785 29.7891 66.0503 27.4284 63.6896C25.0677 61.3289 23.7395 58.1284 23.7352 54.7898C23.7352 50.5828 25.8352 46.7203 29.3039 44.3883V12.3047C29.3039 8.43046 32.4516 5.27343 36.3281 5.27343C40.2047 5.27343 43.3594 8.42811 43.3594 12.3047V44.3906C45.0716 45.5318 46.4756 47.078 47.4467 48.8922C48.4177 50.7063 48.9258 52.7345 48.9258 54.7922ZM51.7617 20.2172L62.3086 26.3062V14.1328L51.7617 20.2172Z" fill="#4179CA" fill-opacity="0.933333"/>
</svg>
